HIERARCHY
ROOT reference
{
  OFFSET 0 0 0
  CHANNELS 6 Xposition Yposition Zposition Zrotation Xrotation Yrotation
  JOINT Hips
  {
    OFFSET 339.145 90.8604 236.464
    CHANNELS 3 Zrotation Xrotation Yrotation
    JOINT RightUpLeg
    {
      OFFSET -9.24113 -1.522 -0.0337757
      CHANNELS 3 Zrotation Xrotation Yrotation
      JOINT RightLeg
      {
        OFFSET 0.0344394 -41.8985 0.100154
        CHANNELS 3 Zrotation Xrotation Yrotation
        JOINT RightFoot
        {
          OFFSET -0.415571 -42.0751 0.023027
          CHANNELS 3 Zrotation Xrotation Yrotation
          End Site
          {
            OFFSET 0 -7.69 17.5
          }
        }
      }
    }
    JOINT LeftUpLeg
    {
      OFFSET 9.30897 -1.67379 -0.0291548
      CHANNELS 3 Zrotation Xrotation Yrotation
      JOINT LeftLeg
      {
        OFFSET 0.0832755 -41.864 -0.14338
        CHANNELS 3 Zrotation Xrotation Yrotation
        JOINT LeftFoot
        {
          OFFSET 0.17151 -41.5225 0.735469
          CHANNELS 3 Zrotation Xrotation Yrotation
          End Site
          {
            OFFSET 0 -7.69 17.5
          }
        }
      }
    }
    JOINT Spine
    {
      OFFSET 0.00853273 14.2903 0.0777264
      CHANNELS 3 Zrotation Xrotation Yrotation
      JOINT Spine1
      {
        OFFSET 0.0173944 9.71323 0.029081
        CHANNELS 3 Zrotation Xrotation Yrotation
        JOINT Spine2
        {
          OFFSET 0.0412483 10.1247 -0.0145163
          CHANNELS 3 Zrotation Xrotation Yrotation
          JOINT Spine3
          {
            OFFSET 0.0279063 9.71793 0.00755232
            CHANNELS 3 Zrotation Xrotation Yrotation
            JOINT Neck
            {
              OFFSET 0.0852486 10.3712 0.0268485
              CHANNELS 3 Zrotation Xrotation Yrotation
              JOINT Head
              {
                OFFSET 0.0739267 9.48251 0.0332551
                CHANNELS 3 Zrotation Xrotation Yrotation
                End Site
                {
                  OFFSET 0 15.95 0
                }
              }
            }
            JOINT RightShoulder
            {
              OFFSET -3.14957 6.95772 0.0300988
              CHANNELS 3 Zrotation Xrotation Yrotation
              JOINT RightArm
              {
                OFFSET -12.7513 0.0411148 0.0791701
                CHANNELS 3 Zrotation Xrotation Yrotation
                JOINT RightForeArm
                {
                  OFFSET -26.4959 0.0361336 0.259434
                  CHANNELS 3 Zrotation Xrotation Yrotation
                  JOINT RightHand
                  {
                    OFFSET -25.9829 -0.0837334 0.191464
                    CHANNELS 3 Zrotation Xrotation Yrotation
                    JOINT RightHandThumb1
                    {
                      OFFSET -2.48905 0.190105 3.12053
                      CHANNELS 3 Zrotation Xrotation Yrotation
                      JOINT RightHandThumb2
                      {
                        OFFSET -3.68274 0 0
                        CHANNELS 3 Zrotation Xrotation Yrotation
                        JOINT RightHandThumb3
                        {
                          OFFSET -2.55832 0 0
                          CHANNELS 3 Zrotation Xrotation Yrotation
                          End Site
                          {
                            OFFSET -2.194 0 0
                          }
                        }
                      }
                    }
                    JOINT RightInHandIndex
                    {
                      OFFSET -3.22368 0.508421 1.97842
                      CHANNELS 3 Zrotation Xrotation Yrotation
                      JOINT RightHandIndex1
                      {
                        OFFSET -5.21684 -0.091368 0.999158
                        CHANNELS 3 Zrotation Xrotation Yrotation
                        JOINT RightHandIndex2
                        {
                          OFFSET -3.61937 0 0
                          CHANNELS 3 Zrotation Xrotation Yrotation
                          JOINT RightHandIndex3
                          {
                            OFFSET -2.0521 0 0
                            CHANNELS 3 Zrotation Xrotation Yrotation
                            End Site
                            {
                              OFFSET -1.805 0 0
                            }
                          }
                        }
                      }
                    }
                    JOINT RightInHandMiddle
                    {
                      OFFSET -3.38211 0.517263 0.756737
                      CHANNELS 3 Zrotation Xrotation Yrotation
                      JOINT RightHandMiddle1
                      {
                        OFFSET -5.17411 -0.084 0.313895
                        CHANNELS 3 Zrotation Xrotation Yrotation
                        JOINT RightHandMiddle2
                        {
                          OFFSET -3.94947 0 0
                          CHANNELS 3 Zrotation Xrotation Yrotation
                          JOINT RightHandMiddle3
                          {
                            OFFSET -2.47579 0 0
                            CHANNELS 3 Zrotation Xrotation Yrotation
                            End Site
                            {
                              OFFSET -1.975 0 0
                            }
                          }
                        }
                      }
                    }
                    JOINT RightInHandRing
                    {
                      OFFSET -3.36516 0.537895 -0.128947
                      CHANNELS 3 Zrotation Xrotation Yrotation
                      JOINT RightHandRing1
                      {
                        OFFSET -4.63474 -0.022105 -0.478947
                        CHANNELS 3 Zrotation Xrotation Yrotation
                        JOINT RightHandRing2
                        {
                          OFFSET -3.44238 0 0
                          CHANNELS 3 Zrotation Xrotation Yrotation
                          JOINT RightHandRing3
                          {
                            OFFSET -2.3881 0 0
                            CHANNELS 3 Zrotation Xrotation Yrotation
                            End Site
                            {
                              OFFSET -1.857 0 0
                            }
                          }
                        }
                      }
                    }
                    JOINT RightInHandPinky
                    {
                      OFFSET -3.16105 0.469368 -1.20179
                      CHANNELS 3 Zrotation Xrotation Yrotation
                      JOINT RightHandPinky1
                      {
                        OFFSET -4.14105 -0.022105 -1.09053
                        CHANNELS 3 Zrotation Xrotation Yrotation
                        JOINT RightHandPinky2
                        {
                          OFFSET -2.75653 0 0
                          CHANNELS 3 Zrotation Xrotation Yrotation
                          JOINT RightHandPinky3
                          {
                            OFFSET -1.74189 0 0
                            CHANNELS 3 Zrotation Xrotation Yrotation
                            End Site
                            {
                              OFFSET -1.645 0 0
                            }
                          }
                        }
                      }
                    }
                  }
                }
              }
            }
            JOINT LeftShoulder
            {
              OFFSET 3.25273 6.91522 -0.0295735
              CHANNELS 3 Zrotation Xrotation Yrotation
              JOINT LeftArm
              {
                OFFSET 12.7785 0.0134102 -0.0213482
                CHANNELS 3 Zrotation Xrotation Yrotation
                JOINT LeftForeArm
                {
                  OFFSET 26.5044 -0.0446277 0.0404034
                  CHANNELS 3 Zrotation Xrotation Yrotation
                  JOINT LeftHand
                  {
                    OFFSET 25.9955 -0.0467726 -0.0166804
                    CHANNELS 3 Zrotation Xrotation Yrotation
                    JOINT LeftHandThumb1
                    {
                      OFFSET 2.48905 0.190105 3.12053
                      CHANNELS 3 Zrotation Xrotation Yrotation
                      JOINT LeftHandThumb2
                      {
                        OFFSET 3.68274 0 0
                        CHANNELS 3 Zrotation Xrotation Yrotation
                        JOINT LeftHandThumb3
                        {
                          OFFSET 2.55832 0 0
                          CHANNELS 3 Zrotation Xrotation Yrotation
                          End Site
                          {
                            OFFSET 2.194 0 0
                          }
                        }
                      }
                    }
                    JOINT LeftInHandIndex
                    {
                      OFFSET 3.22368 0.508421 1.97842
                      CHANNELS 3 Zrotation Xrotation Yrotation
                      JOINT LeftHandIndex1
                      {
                        OFFSET 5.21684 -0.091368 0.999158
                        CHANNELS 3 Zrotation Xrotation Yrotation
                        JOINT LeftHandIndex2
                        {
                          OFFSET 3.61937 0 0
                          CHANNELS 3 Zrotation Xrotation Yrotation
                          JOINT LeftHandIndex3
                          {
                            OFFSET 2.0521 0 0
                            CHANNELS 3 Zrotation Xrotation Yrotation
                            End Site
                            {
                              OFFSET 1.805 0 0
                            }
                          }
                        }
                      }
                    }
                    JOINT LeftInHandMiddle
                    {
                      OFFSET 3.38211 0.517263 0.756737
                      CHANNELS 3 Zrotation Xrotation Yrotation
                      JOINT LeftHandMiddle1
                      {
                        OFFSET 5.17411 -0.084 0.313895
                        CHANNELS 3 Zrotation Xrotation Yrotation
                        JOINT LeftHandMiddle2
                        {
                          OFFSET 3.94947 0 0
                          CHANNELS 3 Zrotation Xrotation Yrotation
                          JOINT LeftHandMiddle3
                          {
                            OFFSET 2.47579 0 0
                            CHANNELS 3 Zrotation Xrotation Yrotation
                            End Site
                            {
                              OFFSET 1.975 0 0
                            }
                          }
                        }
                      }
                    }
                    JOINT LeftInHandRing
                    {
                      OFFSET 3.36516 0.537895 -0.128947
                      CHANNELS 3 Zrotation Xrotation Yrotation
                      JOINT LeftHandRing1
                      {
                        OFFSET 4.63474 -0.022105 -0.478947
                        CHANNELS 3 Zrotation Xrotation Yrotation
                        JOINT LeftHandRing2
                        {
                          OFFSET 3.44238 0 0
                          CHANNELS 3 Zrotation Xrotation Yrotation
                          JOINT LeftHandRing3
                          {
                            OFFSET 2.3881 0 0
                            CHANNELS 3 Zrotation Xrotation Yrotation
                            End Site
                            {
                              OFFSET 1.857 0 0
                            }
                          }
                        }
                      }
                    }
                    JOINT LeftInHandPinky
                    {
                      OFFSET 3.16105 0.469368 -1.20179
                      CHANNELS 3 Zrotation Xrotation Yrotation
                      JOINT LeftHandPinky1
                      {
                        OFFSET 4.14105 -0.022105 -1.09053
                        CHANNELS 3 Zrotation Xrotation Yrotation
                        JOINT LeftHandPinky2
                        {
                          OFFSET 2.75653 0 0
                          CHANNELS 3 Zrotation Xrotation Yrotation
                          JOINT LeftHandPinky3
                          {
                            OFFSET 1.74189 0 0
                            CHANNELS 3 Zrotation Xrotation Yrotation
                            End Site
                            {
                              OFFSET 1.645 0 0
                            }
                          }
                        }
                      }
                    }
                  }
                }
              }
            }
          }
        }
      }
    }
  }
}
MOTION
Frames:	4
Frame Time:	0.00833333
0 0 0 0 0 -0 25.2666 1.45499 -136.419 35.0445 -32.992 30.7136 -5.20029 13.667 2.96085 2.28736 8.28806 53.8143 34.4363 -15.9314 21.5839 -23.1741 43.9282 21.9911 -2.8299 -14.6059 14.7351 -7.08463 -4.18465 -11.6002 -1.6941 -1.33688 -2.77192 -2.82557 -2.29078 -4.48489 -0.56977 -0.308801 2.74149 -0.252647 -5.3838 41.5287 -9.05791 8.28926 25.6552 3.29426 3.7205 2.17713 25.7011 -64.2542 -5.71311 23.011 -2.45768 123.125 12.043 -21.1554 10.4803 28.184 10.7294 19.1592 -1.65518e-14 0 -10 -3.4533e-15 1.59028e-14 -10 -8.94531e-15 1.59028e-15 7.95139e-16 19.9818 0.871897 2.3964 24 -4.77083e-15 -3.04141e-14 20 -1.59028e-15 -2.46493e-14 -8.94531e-15 1.59028e-15 7.95139e-16 20 0 -1.8487e-14 24 -3.18055e-15 -2.74323e-14 20 0 -2.06736e-14 -8.94531e-15 1.59028e-15 7.95139e-16 19.9748 -1.02565 -2.81938 24 -7.95139e-15 -2.78299e-14 20 1.59028e-15 -3.33958e-14 -8.94531e-15 1.59028e-15 7.95139e-16 19.7815 -3.00948 -8.30515 24 -1.19271e-14 -3.49861e-14 20 -8.15017e-15 -2.54444e-14 16.2728 -23.8441 -51.8633 -25.2994 17.464 -108.372 38.6336 -9.51681 -35.1633 -27.3133 -13.5981 -15.8602 -28.184 10.7294 -19.1592 1.40401e-14 -6.36111e-15 10 -1.88616e-14 -6.36111e-15 10 -6.95746e-16 7.95139e-15 2.38542e-15 -19.9818 0.871897 -2.3964 -24 6.36111e-15 2.78299e-15 -20 1.59028e-15 3.926e-15 -6.95746e-16 7.95139e-15 2.38542e-15 -20 6.36111e-15 -0 -24 0 1.39149e-15 -20 3.18055e-15 5.36719e-15 -6.95746e-16 7.95139e-15 2.38542e-15 -19.9748 -1.02565 2.81938 -24 -2.38542e-15 8.54774e-15 -20 0 -6.36111e-15 -6.95746e-16 7.95139e-15 2.38542e-15 -19.7815 -3.00948 8.30515 -24 7.95139e-16 -4.77083e-15 -20 0 3.18055e-15 
0 0 0 0 0 -0 25.4162 1.59389 -136.091 35.0933 -33.2385 30.7007 -5.14309 13.7145 3.00406 2.29455 8.27605 53.4314 34.5276 -16.1527 21.4479 -23.0022 43.9983 21.7907 -2.72631 -14.6353 14.6848 -7.01692 -4.12166 -11.62 -1.67827 -1.3186 -2.78018 -2.79936 -2.26021 -4.49996 -0.568908 -0.305944 2.7417 -0.27934 -5.32922 41.3598 -9.05566 8.25617 25.7431 3.38245 3.7255 2.16159 26.4531 -64.1496 -5.00476 22.914 -2.45203 122.815 11.9639 -21.2594 10.6305 28.184 10.7294 19.1592 -2.80126e-14 -3.18055e-15 -10 -1.3485e-14 -6.36111e-15 -10 -1.15295e-14 0 7.95139e-16 19.9818 0.871897 2.3964 24 -7.95139e-15 -3.16068e-14 20 0 -2.22639e-14 -1.15295e-14 0 7.95139e-16 20 3.18055e-15 -1.86858e-14 24 -3.18055e-15 -2.90226e-14 20 -1.59028e-15 -2.06736e-14 -1.15295e-14 0 7.95139e-16 19.9748 -1.02565 -2.81938 24 -9.54166e-15 -2.62396e-14 20 7.95139e-16 -3.18055e-14 -1.15295e-14 0 7.95139e-16 19.7815 -3.00948 -8.30515 24 -8.74653e-15 -3.18055e-14 20 -7.15625e-15 -2.06736e-14 16.294 -23.8102 -51.7403 -25.3111 17.5559 -108.45 38.4879 -9.33418 -34.8521 -27.4434 -13.5736 -15.8394 -28.184 10.7294 -19.1592 9.93545e-15 3.18055e-15 10 -2.24169e-14 6.36111e-15 10 7.55382e-15 7.95139e-15 2.38542e-15 -19.9818 0.871897 -2.3964 -24 1.59028e-15 1.98785e-15 -20 -3.18055e-15 3.8763e-15 7.55382e-15 7.95139e-15 2.38542e-15 -20 7.15625e-15 -1.59028e-15 -24 3.18055e-15 -9.93923e-16 -20 1.59028e-15 6.95746e-15 7.55382e-15 7.95139e-15 2.38542e-15 -19.9748 -1.02565 2.81938 -24 0 1.00386e-14 -20 7.95139e-16 -4.77083e-15 7.55382e-15 7.95139e-15 2.38542e-15 -19.7815 -3.00948 8.30515 -24 1.19271e-15 -7.95139e-16 -20 -9.56651e-16 3.97569e-15 
0 0 0 0 0 -0 25.5591 1.71146 -135.771 35.1288 -33.502 30.7473 -5.08476 13.7921 2.99407 2.32786 8.2258 53.0645 34.6028 -16.3816 21.3323 -22.8433 44.0118 21.4982 -2.5428 -14.6655 14.75 -6.92264 -4.09452 -11.8283 -1.65389 -1.31198 -2.83547 -2.75937 -2.24912 -4.59046 -0.568001 -0.303853 2.74188 -0.266826 -5.30992 41.7525 -9.03785 8.35866 25.6052 3.3923 3.74386 2.54486 27.2509 -64.0171 -4.27535 22.9165 -2.42986 122.523 11.9338 -21.324 10.7953 28.184 10.7294 19.1592 -1.97814e-14 0 -10 -1.30819e-14 -3.18055e-15 -10 8.94531e-16 -1.59028e-15 -0 19.9818 0.871897 2.3964 24 -4.77083e-15 -3.06128e-14 20 0 -2.22639e-14 8.94531e-16 -1.59028e-15 -0 20 3.18055e-15 -1.98785e-14 24 -4.77083e-15 -2.82274e-14 20 -3.18055e-15 -1.82882e-14 8.94531e-16 -1.59028e-15 -0 19.9748 -1.02565 -2.81938 24 -6.36111e-15 -2.8625e-14 20 0 -3.18055e-14 8.94531e-16 -1.59028e-15 -0 19.7815 -3.00948 -8.30515 24 -1.19271e-14 -3.33958e-14 20 -9.14409e-15 -2.22639e-14 16.2952 -23.5912 -51.54 -25.2917 17.6047 -108.271 38.3438 -9.14516 -34.5054 -27.5927 -13.5361 -15.8057 -28.184 10.7294 -19.1592 1.23577e-14 3.18055e-15 10 -1.79533e-14 -6.36111e-15 10 1.09829e-14 7.15625e-15 2.38542e-15 -19.9818 0.871897 -2.3964 -24 6.36111e-15 -3.97569e-16 -20 -1.59028e-15 3.18055e-15 1.09829e-14 7.15625e-15 2.38542e-15 -20 6.36111e-15 7.95139e-16 -24 -7.95139e-16 2.28602e-15 -20 5.56597e-15 6.36111e-15 1.09829e-14 7.15625e-15 2.38542e-15 -19.9748 -1.02565 2.81938 -24 -2.38542e-15 9.74045e-15 -20 2.38542e-15 -6.36111e-15 1.09829e-14 7.15625e-15 2.38542e-15 -19.7815 -3.00948 8.30515 -24 7.95139e-16 -3.18055e-15 -20 7.95139e-16 3.18055e-15 
0 0 0 0 0 -0 25.7463 1.86032 -135.328 35.1546 -33.8542 30.7194 -4.98677 13.8878 2.93757 2.30902 8.19016 52.6892 34.7197 -16.7763 21.156 -22.7017 44.0063 21.2001 -2.2851 -14.6366 14.8622 -6.81354 -4.05135 -12.0576 -1.62603 -1.30097 -2.89683 -2.71356 -2.23068 -4.69098 -0.567078 -0.302075 2.74205 -0.272529 -5.28395 41.8289 -9.05953 8.39003 25.6893 3.43293 3.77394 2.85305 28.3637 -63.7552 -3.21954 22.8876 -2.50516 122.229 11.9127 -21.3491 10.9298 28.184 10.7294 19.1592 -1.4937e-14 0 -10 -2.75022e-15 0 -10 -9.0447e-15 -1.59028e-15 7.95139e-16 19.9818 0.871897 2.3964 24 -3.18055e-15 -3.27995e-14 20 -1.59028e-15 -2.3059e-14 -9.0447e-15 -1.59028e-15 7.95139e-16 20 4.77083e-15 -1.78906e-14 24 -4.77083e-15 -2.92213e-14 20 -1.59028e-15 -1.98785e-14 -9.0447e-15 -1.59028e-15 7.95139e-16 19.9748 -1.02565 -2.81938 24 -6.36111e-15 -2.82274e-14 20 7.95139e-16 -3.18055e-14 -9.0447e-15 -1.59028e-15 7.95139e-16 19.7815 -3.00948 -8.30515 24 -1.07344e-14 -3.18055e-14 20 -8.54774e-15 -2.54444e-14 16.3881 -23.4026 -51.2254 -25.3015 17.6946 -108.233 38.2316 -8.92923 -34.1189 -27.7603 -13.5025 -15.7671 -28.184 10.7294 -19.1592 9.93545e-15 3.18055e-15 10 -2.14077e-14 6.36111e-15 10 8.99501e-15 7.95139e-15 3.97569e-15 -19.9818 0.871897 -2.3964 -24 4.77083e-15 -3.97569e-16 -20 0 3.27995e-15 8.99501e-15 7.95139e-15 3.97569e-15 -20 7.95139e-15 7.95139e-16 -24 0 5.46658e-16 -20 3.18055e-15 5.56597e-15 8.99501e-15 7.95139e-15 3.97569e-15 -19.9748 -1.02565 2.81938 -24 -2.38542e-15 1.03368e-14 -20 2.38542e-15 -5.96354e-15 8.99501e-15 7.95139e-15 3.97569e-15 -19.7815 -3.00948 8.30515 -24 9.93923e-16 -3.18055e-15 -20 -3.97569e-16 3.97569e-15 
